<svg xmlns="http://www.w3.org/2000/svg" data-name="Layer 1" viewBox="0 0 64 64" id="classroom"><path d="M5 60h14a1 1 0 0 0 1-1 8 8 0 0 0-16 0 1 1 0 0 0 1 1Z"></path><circle cx="12" cy="45" r="5"></circle><path d="M24 59a1 1 0 0 0 1 1h14a1 1 0 0 0 1-1 8 8 0 0 0-16 0Z"></path><circle cx="32" cy="45" r="5"></circle><path d="M52 51a8 8 0 0 0-8 8 1 1 0 0 0 1 1h14a1 1 0 0 0 1-1 8 8 0 0 0-8-8Z"></path><circle cx="52" cy="45" r="5"></circle><circle cx="13" cy="9" r="5"></circle><path d="M5 27h3v10a1 1 0 0 0 1 1h3V28a1 1 0 0 1 2 0v10h3a1 1 0 0 0 1-1V21h7a1 1 0 0 0 1-1v-4a1 1 0 0 0-1-1H8a4 4 0 0 0-4 4v7a1 1 0 0 0 1 1Z"></path><path d="M59 4H21a1 1 0 0 0-1 1v9h5a2 2 0 0 1 2 2v4a2 2 0 0 1-2 2h-5v9a1 1 0 0 0 1 1h38a1 1 0 0 0 1-1V5a1 1 0 0 0-1-1Zm-6 22H43a1 1 0 0 1 0-2h10a1 1 0 0 1 0 2Zm0-7H29a1 1 0 0 1 0-2h24a1 1 0 0 1 0 2Zm0-7H27a1 1 0 0 1 0-2h26a1 1 0 0 1 0 2Z"></path></svg>