<?xml version="1.0" encoding="utf-8"?>
<!-- Svg Vector Icons : http://www.onlinewebfonts.com/icon -->
<!DOCTYPE svg PUBLIC "-//W3C//DTD SVG 1.1//EN" "http://www.w3.org/Graphics/SVG/1.1/DTD/svg11.dtd">
<svg version="1.1" xmlns="http://www.w3.org/2000/svg" xmlns:xlink="http://www.w3.org/1999/xlink" x="0px" y="0px" viewBox="0 0 256 256" enable-background="new 0 0 256 256" xml:space="preserve">
<metadata> Svg Vector Icons : http://www.onlinewebfonts.com/icon </metadata>
<g><g><path fill="#000000" d="M130.1,124.9c12.1,0,22-9.8,22-22c0-12.1-9.8-22-22-22c-12.1,0-22,9.8-22,22C108.1,115,118,124.9,130.1,124.9z M130.1,87.7c8.4,0,15.2,6.8,15.2,15.2s-6.8,15.2-15.2,15.2c-8.4,0-15.2-6.8-15.2-15.2C114.9,94.6,121.7,87.7,130.1,87.7z"/><path fill="#000000" d="M130.1,106.3h8.3c1.9,0,3.4-1.5,3.4-3.4s-1.5-3.4-3.4-3.4h-4.9v-5.9c0-1.9-1.5-3.4-3.4-3.4s-3.4,1.5-3.4,3.4v9.3C126.7,104.8,128.2,106.3,130.1,106.3z"/><path fill="#000000" d="M199.3,122.1h-7.4c-2.6,0-4.7,2.1-4.7,4.7v13.5c0,2.6,2.1,4.7,4.7,4.7h7.4c2.6,0,4.7-2.1,4.7-4.7v-13.5C204,124.2,201.9,122.1,199.3,122.1z M197.2,138.3h-3.3v-9.4h3.3V138.3z"/><path fill="#000000" d="M221.3,122.1h-7.4c-2.6,0-4.7,2.1-4.7,4.7v13.5c0,2.6,2.1,4.7,4.7,4.7h7.4c2.6,0,4.7-2.1,4.7-4.7v-13.5C226,124.2,223.9,122.1,221.3,122.1z M219.2,138.3h-3.3v-9.4h3.3V138.3z"/><path fill="#000000" d="M199.3,147.3h-7.4c-2.6,0-4.7,2.1-4.7,4.7v13.5c0,2.6,2.1,4.7,4.7,4.7h7.4c2.6,0,4.7-2.1,4.7-4.7V152C204,149.4,201.9,147.3,199.3,147.3z M197.2,163.5h-3.3v-9.4h3.3V163.5z"/><path fill="#000000" d="M221.3,147.3h-7.4c-2.6,0-4.7,2.1-4.7,4.7v13.5c0,2.6,2.1,4.7,4.7,4.7h7.4c2.6,0,4.7-2.1,4.7-4.7V152C226,149.4,223.9,147.3,221.3,147.3z M219.2,163.5h-3.3v-9.4h3.3V163.5z"/><path fill="#000000" d="M199.3,172.5h-7.4c-2.6,0-4.7,2.1-4.7,4.7v13.5c0,2.6,2.1,4.7,4.7,4.7h7.4c2.6,0,4.7-2.1,4.7-4.7v-13.5C204,174.6,201.9,172.5,199.3,172.5z M197.2,188.7h-3.3v-9.4h3.3V188.7z"/><path fill="#000000" d="M221.3,172.5h-7.4c-2.6,0-4.7,2.1-4.7,4.7v13.5c0,2.6,2.1,4.7,4.7,4.7h7.4c2.6,0,4.7-2.1,4.7-4.7v-13.5C226,174.6,223.9,172.5,221.3,172.5z M219.2,188.7h-3.3v-9.4h3.3V188.7z"/><path fill="#000000" d="M68,122.1h-7.4c-2.6,0-4.7,2.1-4.7,4.7v13.5c0,2.6,2.1,4.7,4.7,4.7H68c2.6,0,4.7-2.1,4.7-4.7v-13.5C72.7,124.2,70.6,122.1,68,122.1z M65.9,138.3h-3.3v-9.4h3.3V138.3z"/><path fill="#000000" d="M46.1,122.1h-7.4c-2.6,0-4.7,2.1-4.7,4.7v13.5c0,2.6,2.1,4.7,4.7,4.7h7.4c2.6,0,4.7-2.1,4.7-4.7v-13.5C50.7,124.2,48.6,122.1,46.1,122.1z M44,138.3h-3.3v-9.4H44V138.3z"/><path fill="#000000" d="M68,147.3h-7.4c-2.6,0-4.7,2.1-4.7,4.7v13.5c0,2.6,2.1,4.7,4.7,4.7H68c2.6,0,4.7-2.1,4.7-4.7V152C72.7,149.4,70.6,147.3,68,147.3z M65.9,163.5h-3.3v-9.4h3.3V163.5z"/><path fill="#000000" d="M46.1,147.3h-7.4c-2.6,0-4.7,2.1-4.7,4.7v13.5c0,2.6,2.1,4.7,4.7,4.7h7.4c2.6,0,4.7-2.1,4.7-4.7V152C50.7,149.4,48.6,147.3,46.1,147.3z M44,163.5h-3.3v-9.4H44V163.5z"/><path fill="#000000" d="M68,172.5h-7.4c-2.6,0-4.7,2.1-4.7,4.7v13.5c0,2.6,2.1,4.7,4.7,4.7H68c2.6,0,4.7-2.1,4.7-4.7v-13.5C72.7,174.6,70.6,172.5,68,172.5z M65.9,188.7h-3.3v-9.4h3.3V188.7z"/><path fill="#000000" d="M46.1,172.5h-7.4c-2.6,0-4.7,2.1-4.7,4.7v13.5c0,2.6,2.1,4.7,4.7,4.7h7.4c2.6,0,4.7-2.1,4.7-4.7v-13.5C50.7,174.6,48.6,172.5,46.1,172.5z M44,188.7h-3.3v-9.4H44V188.7z"/><path fill="#000000" d="M131.3,139.2h-2.5c-14.5,0-26.3,11.8-26.3,26.3v23.6c0,1.9,1.5,3.4,3.4,3.4c1.9,0,3.4-1.5,3.4-3.4v-23.6c0-10.8,8.8-19.6,19.6-19.6h2.5c10.8,0,19.6,8.8,19.6,19.6v23.6c0,1.9,1.5,3.4,3.4,3.4c1.9,0,3.4-1.5,3.4-3.4v-23.6C157.6,151,145.8,139.2,131.3,139.2z"/><path fill="#000000" d="M242.6,199.5h-4V122c0-5.9-4.8-10.7-10.7-10.7h-46.5V81.5c0-7.7-6.2-13.9-13.9-13.9h-34.2V40.9c0-0.9-0.4-1.8-1-2.4c-2-2-4.4-3-7-3c-2.9,0-5.5,1.3-7.8,2.4c-1.8,0.9-3.5,1.7-4.9,1.7c-0.6,0-1.3-0.1-2.3-1.1c-1-0.9-2.4-1.2-3.7-0.7c-1.3,0.5-2,1.8-2,3.1v16c0,0.9,0.4,1.8,1,2.4c2,2,4.4,3,7,3l0,0c2.9,0,5.5-1.3,7.8-2.4c1.8-0.9,3.5-1.7,4.9-1.7c0.4,0,0.8,0,1.3,0.3v9H92.5c-7.7,0-13.9,6.2-13.9,13.9v29.9H32c-5.9,0-10.7,4.8-10.7,10.7v77.5h-7.9c-1.9,0-3.4,1.5-3.4,3.4v14.2c0,1.9,1.5,3.4,3.4,3.4h229.3c1.9,0,3.4-1.5,3.4-3.4v-14.2C246,201,244.5,199.5,242.6,199.5z M181.5,118.1h46.5c2.2,0,3.9,1.8,3.9,3.9v77.5h-50.4V118.1z M125.4,51.6c-2.9,0-5.5,1.3-7.8,2.4c-1.8,0.9-3.5,1.7-4.9,1.7c-0.4,0-0.8,0-1.3-0.3v-9.1c0.4,0,0.8,0.1,1.3,0.1c2.9,0,5.5-1.3,7.8-2.4c1.8-0.9,3.5-1.7,4.9-1.7c0.4,0,0.8,0,1.3,0.3v9.1C126.3,51.6,125.8,51.6,125.4,51.6z M85.4,81.5c0-3.9,3.2-7.1,7.1-7.1h75.1c3.9,0,7.1,3.2,7.1,7.1v118H85.4V81.5z M28,122c0-2.2,1.8-3.9,3.9-3.9h46.7v81.4H28V122z M239.3,213.7H16.7v-7.5h222.5V213.7L239.3,213.7z"/></g></g>
</svg>