<?xml version="1.0" encoding="utf-8"?>
<!-- Svg Vector Icons : http://www.onlinewebfonts.com/icon -->
<!DOCTYPE svg PUBLIC "-//W3C//DTD SVG 1.1//EN" "http://www.w3.org/Graphics/SVG/1.1/DTD/svg11.dtd">
<svg version="1.1" xmlns="http://www.w3.org/2000/svg" xmlns:xlink="http://www.w3.org/1999/xlink" x="0px" y="0px" viewBox="0 0 256 256" enable-background="new 0 0 256 256" xml:space="preserve">
<metadata> Svg Vector Icons : http://www.onlinewebfonts.com/icon </metadata>
<g><g><g><path fill="#000000" d="M80.8,24.7C54,30.1,35.8,34,35.3,34.4c-0.5,0.4-1.1,1.3-1.4,2.2c-0.9,2,0,4.7,1.9,5.7c0.8,0.4,21.8,5.1,46.8,10.3l45.5,9.5l38.6-7.8c21.2-4.3,38.8-7.9,39.2-7.9c0.5,0,0.6,3.4,0.6,18.6v18.6l-4.8,21.6c-2.7,11.8-4.8,22.1-4.8,22.9c0,0.7,0.6,1.9,1.3,2.8l1.3,1.5h12.1h12.1l1.3-1.5c0.8-0.9,1.3-2,1.3-2.8c0-0.7-2.2-11.1-4.8-23l-4.8-21.7V63.7c0-21.8-0.3-19.7,3.2-20.3c4-0.7,5.5-2.2,5.5-5.4c0-1.7-1.3-3.8-2.7-4.2c-2.8-0.9-93.5-18.2-95.1-18.2C126.4,15.6,105.4,19.7,80.8,24.7z M213.3,114c0.9,4,1.7,7.6,1.8,7.8c0.1,0.5-0.8,0.6-3.6,0.6s-3.7-0.1-3.6-0.6c0.1-0.3,0.9-3.8,1.8-7.8c0.8-4,1.7-7.2,1.8-7.2C211.6,106.8,212.5,110.1,213.3,114z"/><path fill="#000000" d="M78.8,68v5.9l4.5,1c26.9,5.9,63.7,5.9,90.3-0.2l3.3-0.7v-5.9v-5.9L153.4,67c-12.9,2.6-24.4,4.8-25.5,4.8c-1.1,0-12.3-2.2-24.9-4.8c-12.6-2.7-23.3-4.8-23.6-4.8C78.9,62.1,78.8,63.4,78.8,68z"/><path fill="#000000" d="M78.8,87.1V90l-3,2.2c-1.6,1.2-3.7,3.3-4.7,4.7l-1.8,2.6l-0.1,12.7l-0.1,12.7l1.2,2.4c1.8,3.7,6.4,7.1,11.8,8.9l1.6,0.5l0.6,5.4c3,28.8,16.8,49.3,36,53.4c7.4,1.6,16.5,0.5,23.3-2.8c15.2-7.2,26.4-27.7,28.2-51.4l0.3-4.4l3.2-1.3c5.7-2.3,10.2-6.5,11.3-10.6c0.3-1.2,0.4-6.4,0.3-14.8c-0.1-12-0.2-13.1-1.1-15c-1.3-2.8-3.5-4.9-6.4-5.9c-2.4-0.8-2.4-0.9-2.5-3c-0.1-2.1-0.2-2.2-1.4-1.9c-16.4,3.5-29.5,4.9-47.4,4.9c-16.9,0-29.4-1.2-43.1-3.9c-3-0.6-5.8-1.2-5.9-1.2C79,84.2,78.8,85.5,78.8,87.1z"/><path fill="#000000" d="M80.5,176c-1,1.3-1.8,2.6-1.8,2.9c0,0.5,12.2,9.5,12.4,9.2c0.1-0.1-0.6-1.2-1.7-2.6c-1-1.3-2.9-4.3-4.2-6.6c-1.3-2.3-2.5-4.4-2.7-4.7C82.3,173.8,81.7,174.4,80.5,176z"/><path fill="#000000" d="M171.4,177.7c-1.1,2-3.1,5.3-4.7,7.4c-1.5,2.1-2.6,3.8-2.5,3.8c0.4,0,13.1-9.3,13.1-9.5c0-0.3-3.7-5.3-3.9-5.3C173.4,174.1,172.5,175.7,171.4,177.7z"/><path fill="#000000" d="M57.8,181.9c-22.4,2.1-40.7,17.2-46.2,38.1c-0.8,3.3-1.2,6.1-1.4,11l-0.3,6.5l1.4,1.4l1.4,1.4h115h115l1.5-1.3c1.2-1.1,1.5-1.7,1.7-4.1c0.1-1.6,0-4.7-0.3-7.1c-1.3-11.5-5.8-21.1-13.6-29.3c-9.3-9.8-21.3-15.4-35.4-16.7l-5-0.4l-31,22.1c-28.8,20.6-31.1,22.1-32.8,22.1c-1.8,0-4.1-1.7-32.5-22.1c-25.2-18.2-30.9-22.1-32-22.1C62.6,181.5,60.1,181.8,57.8,181.9z"/><path fill="#000000" d="M112.5,203.7c0.1,0.1,3.5,2.6,7.7,5.6c4.7,3.4,7.7,5.3,8.2,5.1c0.7-0.3,14.9-10.4,14.9-10.6c0,0-1.8,0.4-4,0.9c-7.8,1.9-17,1.8-23.9-0.3C112.6,203.5,112.2,203.4,112.5,203.7z"/></g></g></g>
</svg>