<?xml version="1.0" encoding="utf-8"?>
<!-- Svg Vector Icons : http://www.onlinewebfonts.com/icon -->
<!DOCTYPE svg PUBLIC "-//W3C//DTD SVG 1.1//EN" "http://www.w3.org/Graphics/SVG/1.1/DTD/svg11.dtd">
<svg version="1.1" xmlns="http://www.w3.org/2000/svg" xmlns:xlink="http://www.w3.org/1999/xlink" x="0px" y="0px" viewBox="0 0 256 256" enable-background="new 0 0 256 256" xml:space="preserve">
<metadata> Svg Vector Icons : http://www.onlinewebfonts.com/icon </metadata>
<g><g><g><path fill="#000000" d="M111.6,60.4c-2.3,1-4.4,3.3-5.3,5.6c-0.4,1.1-0.7,9.4-0.7,22.8v21h5h5V89.7V69.6H176h60.3v45.2V160H197h-39.3v5v5.1l41.1-0.2c40.4-0.2,41.1-0.2,42.8-1.5c0.9-0.7,2.3-2.1,3-3c1.3-1.7,1.3-2.2,1.3-50.6c0-48.4,0-48.9-1.3-50.6c-0.7-0.9-2.1-2.3-3-3c-1.7-1.3-2.2-1.3-65-1.4C125,59.6,113.1,59.7,111.6,60.4z"/><path fill="#000000" d="M60.3,64.4c-11.7,3.9-19,16-16.9,27.8c2.4,13.6,15.1,22.7,28.6,20.5c8.1-1.2,15.1-6.5,18.7-14.1c1.8-3.9,2-4.8,2-10.2c-0.1-7.7-1.6-11.7-6.4-17c-5-5.4-9.7-7.6-17-7.9C65.2,63.3,63,63.5,60.3,64.4z"/><path fill="#000000" d="M180.7,118c-12.8,10.1-23.5,18.5-23.7,18.8c-0.3,0.3,0.2,1.9,1.1,3.8l1.6,3.3l2.6-2.2c1.4-1.1,12-9.4,23.4-18.3c11.4-8.9,21-16.5,21.3-16.7c0.6-0.5-1.9-6.8-2.7-6.8C204.1,99.7,193.5,107.9,180.7,118z"/><path fill="#000000" d="M38,120.4c-13.6,1.4-23.1,7.9-26.7,18c-1.2,3.4-1.3,5.1-1.3,27.3c0,27-0.1,26.6,5.2,29.3c4.8,2.5,10.1,1.3,13.4-3.3c1.3-1.6,1.3-2.6,1.5-21.5l0.2-19.7h5h5v22v22h27.6h27.6v-22v-22h5h5V161c0,9.6,0.1,10.6,1.4,12.9c2.4,4.3,7.8,6.5,11.9,4.7c1.2-0.5,9.8-6,19.1-12.3c14.4-9.7,17.1-11.7,18.4-14c1.8-3.3,1.8-5.2-0.1-8.7c-1.9-3.8-4.8-5.7-8.7-5.7c-3.6,0-5.4,0.9-14.4,7.2l-6.7,4.7l-0.3-2c-0.2-1.1-0.5-3.3-0.7-5c-0.9-6.8-7-14.8-13.9-18.3c-6-3-11.7-4.2-22.2-4.6l-9.7-0.4l-5.6,9.2c-3,5-5.7,9.2-6,9.2c-0.3,0-3-4.1-6-9.1l-5.6-9.1l-6.9,0.1C45.6,119.9,40.4,120.2,38,120.4z"/></g></g></g>
</svg>